<svg width="547" height="533" viewBox="0 0 547 533" fill="none" xmlns="http://www.w3.org/2000/svg">
<rect x="0.5" y="0.5" width="546" height="532" stroke="black"/>
<line y1="84.5" x2="547" y2="84.5" stroke="black"/>
<line y1="462.5" x2="547" y2="462.5" stroke="black"/>
<path d="M326.392 30.8H328.228V54.344H342.736V56H326.392V30.8ZM353.246 37.064C355.574 37.064 357.362 37.664 358.61 38.864C359.858 40.04 360.482 41.78 360.482 44.084V56H358.754V52.652C358.154 53.756 357.278 54.62 356.126 55.244C354.974 55.844 353.594 56.144 351.986 56.144C349.898 56.144 348.242 55.652 347.018 54.668C345.818 53.684 345.218 52.388 345.218 50.78C345.218 49.22 345.77 47.96 346.874 47C348.002 46.016 349.79 45.524 352.238 45.524H358.682V44.012C358.682 42.26 358.202 40.928 357.242 40.016C356.306 39.104 354.926 38.648 353.102 38.648C351.854 38.648 350.654 38.864 349.502 39.296C348.374 39.728 347.414 40.304 346.622 41.024L345.722 39.728C346.658 38.888 347.786 38.24 349.106 37.784C350.426 37.304 351.806 37.064 353.246 37.064ZM352.238 54.668C353.798 54.668 355.118 54.308 356.198 53.588C357.302 52.868 358.13 51.824 358.682 50.456V46.928H352.274C350.426 46.928 349.082 47.264 348.242 47.936C347.426 48.608 347.018 49.532 347.018 50.708C347.018 51.932 347.474 52.904 348.386 53.624C349.298 54.32 350.582 54.668 352.238 54.668ZM384.35 37.208V56H382.622V51.968C381.998 53.288 381.074 54.32 379.85 55.064C378.626 55.784 377.186 56.144 375.53 56.144C373.082 56.144 371.162 55.46 369.77 54.092C368.378 52.724 367.682 50.756 367.682 48.188V37.208H369.482V48.044C369.482 50.156 370.022 51.764 371.102 52.868C372.182 53.972 373.706 54.524 375.674 54.524C377.786 54.524 379.454 53.864 380.678 52.544C381.926 51.224 382.55 49.448 382.55 47.216V37.208H384.35ZM393.708 41.312C394.284 39.944 395.184 38.9 396.408 38.18C397.632 37.436 399.12 37.064 400.872 37.064V38.828L400.44 38.792C398.352 38.792 396.72 39.452 395.544 40.772C394.368 42.068 393.78 43.88 393.78 46.208V56H391.98V37.208H393.708V41.312ZM412.168 37.064C414.496 37.064 416.284 37.664 417.532 38.864C418.78 40.04 419.404 41.78 419.404 44.084V56H417.676V52.652C417.076 53.756 416.2 54.62 415.048 55.244C413.896 55.844 412.516 56.144 410.908 56.144C408.82 56.144 407.164 55.652 405.94 54.668C404.74 53.684 404.14 52.388 404.14 50.78C404.14 49.22 404.692 47.96 405.796 47C406.924 46.016 408.712 45.524 411.16 45.524H417.604V44.012C417.604 42.26 417.124 40.928 416.164 40.016C415.228 39.104 413.848 38.648 412.024 38.648C410.776 38.648 409.576 38.864 408.424 39.296C407.296 39.728 406.336 40.304 405.544 41.024L404.644 39.728C405.58 38.888 406.708 38.24 408.028 37.784C409.348 37.304 410.728 37.064 412.168 37.064ZM411.16 54.668C412.72 54.668 414.04 54.308 415.12 53.588C416.224 52.868 417.052 51.824 417.604 50.456V46.928H411.196C409.348 46.928 408.004 47.264 407.164 47.936C406.348 48.608 405.94 49.532 405.94 50.708C405.94 51.932 406.396 52.904 407.308 53.624C408.22 54.32 409.504 54.668 411.16 54.668ZM447.334 56.18C444.862 56.18 442.63 55.628 440.638 54.524C438.646 53.396 437.074 51.86 435.922 49.916C434.794 47.972 434.23 45.8 434.23 43.4C434.23 41 434.794 38.828 435.922 36.884C437.074 34.94 438.646 33.416 440.638 32.312C442.63 31.184 444.862 30.62 447.334 30.62C449.806 30.62 452.038 31.172 454.03 32.276C456.022 33.38 457.582 34.904 458.71 36.848C459.862 38.792 460.438 40.976 460.438 43.4C460.438 45.824 459.862 48.008 458.71 49.952C457.582 51.896 456.022 53.42 454.03 54.524C452.038 55.628 449.806 56.18 447.334 56.18ZM447.334 54.488C449.446 54.488 451.354 54.008 453.058 53.048C454.762 52.088 456.106 50.768 457.09 49.088C458.074 47.384 458.566 45.488 458.566 43.4C458.566 41.312 458.074 39.428 457.09 37.748C456.106 36.044 454.762 34.712 453.058 33.752C451.354 32.792 449.446 32.312 447.334 32.312C445.222 32.312 443.302 32.792 441.574 33.752C439.87 34.712 438.526 36.044 437.542 37.748C436.558 39.428 436.066 41.312 436.066 43.4C436.066 45.488 436.558 47.384 437.542 49.088C438.526 50.768 439.87 52.088 441.574 53.048C443.302 54.008 445.222 54.488 447.334 54.488ZM472.926 45.956L468.03 50.42V56H466.23V29.288H468.03V48.188L480.054 37.208H482.358L474.258 44.804L483.15 56H480.918L472.926 45.956ZM493.379 37.064C495.707 37.064 497.495 37.664 498.743 38.864C499.991 40.04 500.615 41.78 500.615 44.084V56H498.887V52.652C498.287 53.756 497.411 54.62 496.259 55.244C495.107 55.844 493.727 56.144 492.119 56.144C490.031 56.144 488.375 55.652 487.151 54.668C485.951 53.684 485.351 52.388 485.351 50.78C485.351 49.22 485.903 47.96 487.007 47C488.135 46.016 489.923 45.524 492.371 45.524H498.815V44.012C498.815 42.26 498.335 40.928 497.375 40.016C496.439 39.104 495.059 38.648 493.235 38.648C491.987 38.648 490.787 38.864 489.635 39.296C488.507 39.728 487.547 40.304 486.755 41.024L485.855 39.728C486.791 38.888 487.919 38.24 489.239 37.784C490.559 37.304 491.939 37.064 493.379 37.064ZM492.371 54.668C493.931 54.668 495.251 54.308 496.331 53.588C497.435 52.868 498.263 51.824 498.815 50.456V46.928H492.407C490.559 46.928 489.215 47.264 488.375 47.936C487.559 48.608 487.151 49.532 487.151 50.708C487.151 51.932 487.607 52.904 488.519 53.624C489.431 54.32 490.715 54.668 492.371 54.668ZM512.783 56.144C511.271 56.144 509.831 55.916 508.463 55.46C507.095 55.004 506.027 54.428 505.259 53.732L506.087 52.292C506.855 52.94 507.839 53.48 509.039 53.912C510.263 54.344 511.535 54.56 512.855 54.56C514.751 54.56 516.143 54.248 517.031 53.624C517.943 53 518.399 52.136 518.399 51.032C518.399 50.24 518.147 49.616 517.643 49.16C517.163 48.704 516.563 48.368 515.843 48.152C515.123 47.936 514.127 47.708 512.855 47.468C511.367 47.204 510.167 46.916 509.255 46.604C508.343 46.292 507.563 45.788 506.915 45.092C506.267 44.396 505.943 43.436 505.943 42.212C505.943 40.724 506.555 39.5 507.779 38.54C509.027 37.556 510.791 37.064 513.071 37.064C514.271 37.064 515.459 37.232 516.635 37.568C517.811 37.904 518.771 38.348 519.515 38.9L518.687 40.34C517.919 39.788 517.043 39.368 516.059 39.08C515.075 38.792 514.067 38.648 513.035 38.648C511.283 38.648 509.963 38.972 509.075 39.62C508.187 40.268 507.743 41.12 507.743 42.176C507.743 43.016 507.995 43.676 508.499 44.156C509.003 44.612 509.615 44.96 510.335 45.2C511.079 45.416 512.111 45.656 513.431 45.92C514.895 46.184 516.071 46.472 516.959 46.784C517.871 47.072 518.639 47.552 519.263 48.224C519.887 48.896 520.199 49.82 520.199 50.996C520.199 52.556 519.551 53.804 518.255 54.74C516.959 55.676 515.135 56.144 512.783 56.144Z" fill="black"/>
<path d="M222.52 159.896V161H210.928V144.2H222.16V145.304H212.152V151.928H221.104V153.008H212.152V159.896H222.52ZM231.063 154.304L227.799 157.28V161H226.599V143.192H227.799V155.792L235.815 148.472H237.351L231.951 153.536L237.879 161H236.391L231.063 154.304ZM244.698 148.376C246.25 148.376 247.442 148.776 248.274 149.576C249.106 150.36 249.522 151.52 249.522 153.056V161H248.37V158.768C247.97 159.504 247.386 160.08 246.618 160.496C245.85 160.896 244.93 161.096 243.858 161.096C242.466 161.096 241.362 160.768 240.546 160.112C239.746 159.456 239.346 158.592 239.346 157.52C239.346 156.48 239.714 155.64 240.45 155C241.202 154.344 242.394 154.016 244.026 154.016H248.322V153.008C248.322 151.84 248.002 150.952 247.362 150.344C246.738 149.736 245.818 149.432 244.602 149.432C243.77 149.432 242.97 149.576 242.202 149.864C241.45 150.152 240.81 150.536 240.282 151.016L239.682 150.152C240.306 149.592 241.058 149.16 241.938 148.856C242.818 148.536 243.738 148.376 244.698 148.376ZM244.026 160.112C245.066 160.112 245.946 159.872 246.666 159.392C247.402 158.912 247.954 158.216 248.322 157.304V154.952H244.05C242.818 154.952 241.922 155.176 241.362 155.624C240.818 156.072 240.546 156.688 240.546 157.472C240.546 158.288 240.85 158.936 241.458 159.416C242.066 159.88 242.922 160.112 244.026 160.112ZM271.766 143.192V161H270.59V158.048C270.094 159.024 269.398 159.776 268.502 160.304C267.606 160.832 266.59 161.096 265.454 161.096C264.286 161.096 263.23 160.824 262.286 160.28C261.342 159.736 260.598 158.984 260.054 158.024C259.526 157.064 259.262 155.968 259.262 154.736C259.262 153.504 259.526 152.408 260.054 151.448C260.598 150.472 261.342 149.72 262.286 149.192C263.23 148.648 264.286 148.376 265.454 148.376C266.574 148.376 267.574 148.64 268.454 149.168C269.35 149.696 270.054 150.432 270.566 151.376V143.192H271.766ZM265.526 160.016C266.486 160.016 267.342 159.792 268.094 159.344C268.862 158.896 269.462 158.272 269.894 157.472C270.342 156.672 270.566 155.76 270.566 154.736C270.566 153.712 270.342 152.8 269.894 152C269.462 151.2 268.862 150.576 268.094 150.128C267.342 149.68 266.486 149.456 265.526 149.456C264.566 149.456 263.702 149.68 262.934 150.128C262.182 150.576 261.582 151.2 261.134 152C260.702 152.8 260.486 153.712 260.486 154.736C260.486 155.76 260.702 156.672 261.134 157.472C261.582 158.272 262.182 158.896 262.934 159.344C263.702 159.792 264.566 160.016 265.526 160.016ZM276.825 148.472H278.025V161H276.825V148.472ZM277.425 145.424C277.153 145.424 276.921 145.336 276.729 145.16C276.537 144.968 276.441 144.736 276.441 144.464C276.441 144.192 276.537 143.96 276.729 143.768C276.921 143.576 277.153 143.48 277.425 143.48C277.697 143.48 277.929 143.576 278.121 143.768C278.313 143.944 278.409 144.168 278.409 144.44C278.409 144.712 278.313 144.944 278.121 145.136C277.929 145.328 277.697 145.424 277.425 145.424ZM294.363 148.472V159.656C294.363 161.736 293.859 163.272 292.851 164.264C291.843 165.256 290.323 165.752 288.291 165.752C287.139 165.752 286.051 165.576 285.027 165.224C284.003 164.872 283.179 164.384 282.555 163.76L283.203 162.848C283.827 163.424 284.579 163.872 285.459 164.192C286.339 164.512 287.275 164.672 288.267 164.672C289.931 164.672 291.163 164.272 291.963 163.472C292.763 162.688 293.163 161.464 293.163 159.8V157.688C292.651 158.6 291.939 159.304 291.027 159.8C290.115 160.296 289.091 160.544 287.955 160.544C286.787 160.544 285.723 160.288 284.763 159.776C283.819 159.248 283.075 158.52 282.531 157.592C281.987 156.664 281.715 155.616 281.715 154.448C281.715 153.28 281.987 152.232 282.531 151.304C283.075 150.376 283.819 149.656 284.763 149.144C285.723 148.632 286.787 148.376 287.955 148.376C289.107 148.376 290.147 148.632 291.075 149.144C292.003 149.656 292.715 150.376 293.211 151.304V148.472H294.363ZM288.051 159.464C289.027 159.464 289.907 159.256 290.691 158.84C291.475 158.408 292.083 157.816 292.515 157.064C292.963 156.296 293.187 155.424 293.187 154.448C293.187 153.472 292.963 152.608 292.515 151.856C292.083 151.104 291.475 150.52 290.691 150.104C289.907 149.672 289.027 149.456 288.051 149.456C287.075 149.456 286.195 149.672 285.411 150.104C284.643 150.52 284.035 151.104 283.587 151.856C283.155 152.608 282.939 153.472 282.939 154.448C282.939 155.424 283.155 156.296 283.587 157.064C284.035 157.816 284.643 158.408 285.411 158.84C286.195 159.256 287.075 159.464 288.051 159.464ZM299.442 148.472H300.642V161H299.442V148.472ZM300.042 145.424C299.77 145.424 299.538 145.336 299.346 145.16C299.154 144.968 299.058 144.736 299.058 144.464C299.058 144.192 299.154 143.96 299.346 143.768C299.538 143.576 299.77 143.48 300.042 143.48C300.314 143.48 300.546 143.576 300.738 143.768C300.93 143.944 301.026 144.168 301.026 144.44C301.026 144.712 300.93 144.944 300.738 145.136C300.546 145.328 300.314 145.424 300.042 145.424ZM311.916 160.208C311.612 160.496 311.228 160.72 310.764 160.88C310.316 161.024 309.844 161.096 309.348 161.096C308.26 161.096 307.42 160.8 306.828 160.208C306.236 159.6 305.94 158.76 305.94 157.688V149.504H303.636V148.472H305.94V145.736H307.14V148.472H311.124V149.504H307.14V157.568C307.14 158.384 307.332 159.008 307.716 159.44C308.116 159.856 308.7 160.064 309.468 160.064C310.252 160.064 310.9 159.832 311.412 159.368L311.916 160.208ZM319.487 148.376C321.039 148.376 322.231 148.776 323.063 149.576C323.895 150.36 324.311 151.52 324.311 153.056V161H323.159V158.768C322.759 159.504 322.175 160.08 321.407 160.496C320.639 160.896 319.719 161.096 318.647 161.096C317.255 161.096 316.151 160.768 315.335 160.112C314.535 159.456 314.135 158.592 314.135 157.52C314.135 156.48 314.503 155.64 315.239 155C315.991 154.344 317.183 154.016 318.815 154.016H323.111V153.008C323.111 151.84 322.791 150.952 322.151 150.344C321.527 149.736 320.607 149.432 319.391 149.432C318.559 149.432 317.759 149.576 316.991 149.864C316.239 150.152 315.599 150.536 315.071 151.016L314.471 150.152C315.095 149.592 315.847 149.16 316.727 148.856C317.607 148.536 318.527 148.376 319.487 148.376ZM318.815 160.112C319.855 160.112 320.735 159.872 321.455 159.392C322.191 158.912 322.743 158.216 323.111 157.304V154.952H318.839C317.607 154.952 316.711 155.176 316.151 155.624C315.607 156.072 315.335 156.688 315.335 157.472C315.335 158.288 315.639 158.936 316.247 159.416C316.855 159.88 317.711 160.112 318.815 160.112ZM329.255 143.192H330.455V161H329.255V143.192ZM347.965 148.376C349.133 148.376 350.189 148.648 351.133 149.192C352.077 149.736 352.813 150.488 353.341 151.448C353.885 152.408 354.157 153.504 354.157 154.736C354.157 155.968 353.885 157.072 353.341 158.048C352.813 159.008 352.077 159.76 351.133 160.304C350.189 160.832 349.133 161.096 347.965 161.096C346.861 161.096 345.861 160.84 344.965 160.328C344.069 159.8 343.373 159.072 342.877 158.144V165.656H341.677V148.472H342.829V151.424C343.325 150.464 344.021 149.72 344.917 149.192C345.829 148.648 346.845 148.376 347.965 148.376ZM347.893 160.016C348.853 160.016 349.717 159.792 350.485 159.344C351.253 158.896 351.853 158.272 352.285 157.472C352.733 156.672 352.957 155.76 352.957 154.736C352.957 153.712 352.733 152.8 352.285 152C351.853 151.2 351.253 150.576 350.485 150.128C349.717 149.68 348.853 149.456 347.893 149.456C346.933 149.456 346.069 149.68 345.301 150.128C344.549 150.576 343.949 151.2 343.501 152C343.069 152.8 342.853 153.712 342.853 154.736C342.853 155.76 343.069 156.672 343.501 157.472C343.949 158.272 344.549 158.896 345.301 159.344C346.069 159.792 346.933 160.016 347.893 160.016ZM359.024 151.208C359.408 150.296 360.008 149.6 360.824 149.12C361.64 148.624 362.632 148.376 363.8 148.376V149.552L363.512 149.528C362.12 149.528 361.032 149.968 360.248 150.848C359.464 151.712 359.072 152.92 359.072 154.472V161H357.872V148.472H359.024V151.208ZM371.885 161.096C370.701 161.096 369.629 160.824 368.669 160.28C367.725 159.736 366.981 158.984 366.437 158.024C365.893 157.048 365.621 155.952 365.621 154.736C365.621 153.52 365.893 152.432 366.437 151.472C366.981 150.496 367.725 149.736 368.669 149.192C369.629 148.648 370.701 148.376 371.885 148.376C373.069 148.376 374.133 148.648 375.077 149.192C376.037 149.736 376.789 150.496 377.333 151.472C377.877 152.432 378.149 153.52 378.149 154.736C378.149 155.952 377.877 157.048 377.333 158.024C376.789 158.984 376.037 159.736 375.077 160.28C374.133 160.824 373.069 161.096 371.885 161.096ZM371.885 160.016C372.845 160.016 373.701 159.792 374.453 159.344C375.221 158.896 375.821 158.272 376.253 157.472C376.701 156.672 376.925 155.76 376.925 154.736C376.925 153.712 376.701 152.8 376.253 152C375.821 151.2 375.221 150.576 374.453 150.128C373.701 149.68 372.845 149.456 371.885 149.456C370.925 149.456 370.061 149.68 369.293 150.128C368.541 150.576 367.941 151.2 367.493 152C367.061 152.8 366.845 153.712 366.845 154.736C366.845 155.76 367.061 156.672 367.493 157.472C367.941 158.272 368.541 158.896 369.293 159.344C370.061 159.792 370.925 160.016 371.885 160.016ZM393.008 143.192V161H391.832V158.048C391.336 159.024 390.64 159.776 389.744 160.304C388.848 160.832 387.832 161.096 386.696 161.096C385.528 161.096 384.472 160.824 383.528 160.28C382.584 159.736 381.84 158.984 381.296 158.024C380.768 157.064 380.504 155.968 380.504 154.736C380.504 153.504 380.768 152.408 381.296 151.448C381.84 150.472 382.584 149.72 383.528 149.192C384.472 148.648 385.528 148.376 386.696 148.376C387.816 148.376 388.816 148.64 389.696 149.168C390.592 149.696 391.296 150.432 391.808 151.376V143.192H393.008ZM386.768 160.016C387.728 160.016 388.584 159.792 389.336 159.344C390.104 158.896 390.704 158.272 391.136 157.472C391.584 156.672 391.808 155.76 391.808 154.736C391.808 153.712 391.584 152.8 391.136 152C390.704 151.2 390.104 150.576 389.336 150.128C388.584 149.68 387.728 149.456 386.768 149.456C385.808 149.456 384.944 149.68 384.176 150.128C383.424 150.576 382.824 151.2 382.376 152C381.944 152.8 381.728 153.712 381.728 154.736C381.728 155.76 381.944 156.672 382.376 157.472C382.824 158.272 383.424 158.896 384.176 159.344C384.944 159.792 385.808 160.016 386.768 160.016ZM409.035 148.472V161H407.883V158.312C407.467 159.192 406.851 159.88 406.035 160.376C405.219 160.856 404.259 161.096 403.155 161.096C401.523 161.096 400.243 160.64 399.315 159.728C398.387 158.816 397.923 157.504 397.923 155.792V148.472H399.123V155.696C399.123 157.104 399.483 158.176 400.203 158.912C400.923 159.648 401.939 160.016 403.251 160.016C404.659 160.016 405.771 159.576 406.587 158.696C407.419 157.816 407.835 156.632 407.835 155.144V148.472H409.035ZM419.09 161.096C417.874 161.096 416.786 160.824 415.826 160.28C414.866 159.736 414.114 158.984 413.57 158.024C413.026 157.048 412.754 155.952 412.754 154.736C412.754 153.504 413.026 152.408 413.57 151.448C414.114 150.472 414.866 149.72 415.826 149.192C416.786 148.648 417.874 148.376 419.09 148.376C420.098 148.376 421.01 148.576 421.826 148.976C422.658 149.36 423.33 149.928 423.842 150.68L422.954 151.328C422.506 150.704 421.946 150.24 421.274 149.936C420.618 149.616 419.89 149.456 419.09 149.456C418.114 149.456 417.234 149.68 416.45 150.128C415.682 150.56 415.074 151.176 414.626 151.976C414.194 152.776 413.978 153.696 413.978 154.736C413.978 155.776 414.194 156.696 414.626 157.496C415.074 158.296 415.682 158.92 416.45 159.368C417.234 159.8 418.114 160.016 419.09 160.016C419.89 160.016 420.618 159.864 421.274 159.56C421.946 159.24 422.506 158.768 422.954 158.144L423.842 158.792C423.33 159.544 422.658 160.12 421.826 160.52C421.01 160.904 420.098 161.096 419.09 161.096ZM433.791 160.208C433.487 160.496 433.103 160.72 432.639 160.88C432.191 161.024 431.719 161.096 431.223 161.096C430.135 161.096 429.295 160.8 428.703 160.208C428.111 159.6 427.815 158.76 427.815 157.688V149.504H425.511V148.472H427.815V145.736H429.015V148.472H432.999V149.504H429.015V157.568C429.015 158.384 429.207 159.008 429.591 159.44C429.991 159.856 430.575 160.064 431.343 160.064C432.127 160.064 432.775 159.832 433.287 159.368L433.791 160.208ZM454.438 143.192V161H453.262V158.048C452.766 159.024 452.07 159.776 451.174 160.304C450.278 160.832 449.262 161.096 448.126 161.096C446.958 161.096 445.902 160.824 444.958 160.28C444.014 159.736 443.27 158.984 442.726 158.024C442.198 157.064 441.934 155.968 441.934 154.736C441.934 153.504 442.198 152.408 442.726 151.448C443.27 150.472 444.014 149.72 444.958 149.192C445.902 148.648 446.958 148.376 448.126 148.376C449.246 148.376 450.246 148.64 451.126 149.168C452.022 149.696 452.726 150.432 453.238 151.376V143.192H454.438ZM448.198 160.016C449.158 160.016 450.014 159.792 450.766 159.344C451.534 158.896 452.134 158.272 452.566 157.472C453.014 156.672 453.238 155.76 453.238 154.736C453.238 153.712 453.014 152.8 452.566 152C452.134 151.2 451.534 150.576 450.766 150.128C450.014 149.68 449.158 149.456 448.198 149.456C447.238 149.456 446.374 149.68 445.606 150.128C444.854 150.576 444.254 151.2 443.806 152C443.374 152.8 443.158 153.712 443.158 154.736C443.158 155.76 443.374 156.672 443.806 157.472C444.254 158.272 444.854 158.896 445.606 159.344C446.374 159.792 447.238 160.016 448.198 160.016ZM470.081 155.024H459.305C459.337 156 459.585 156.872 460.049 157.64C460.513 158.392 461.137 158.976 461.921 159.392C462.721 159.808 463.617 160.016 464.609 160.016C465.425 160.016 466.177 159.872 466.865 159.584C467.569 159.28 468.153 158.84 468.617 158.264L469.313 159.056C468.769 159.712 468.081 160.216 467.249 160.568C466.433 160.92 465.545 161.096 464.585 161.096C463.337 161.096 462.225 160.824 461.249 160.28C460.273 159.736 459.505 158.984 458.945 158.024C458.401 157.064 458.129 155.968 458.129 154.736C458.129 153.52 458.385 152.432 458.897 151.472C459.425 150.496 460.145 149.736 461.057 149.192C461.969 148.648 462.993 148.376 464.129 148.376C465.265 148.376 466.281 148.648 467.177 149.192C468.089 149.72 468.801 150.464 469.313 151.424C469.841 152.384 470.105 153.472 470.105 154.688L470.081 155.024ZM464.129 149.432C463.249 149.432 462.457 149.632 461.753 150.032C461.049 150.416 460.481 150.968 460.049 151.688C459.633 152.392 459.393 153.192 459.329 154.088H468.929C468.881 153.192 468.641 152.392 468.209 151.688C467.777 150.984 467.209 150.432 466.505 150.032C465.801 149.632 465.009 149.432 464.129 149.432ZM476.985 161.096C475.977 161.096 475.017 160.944 474.105 160.64C473.193 160.336 472.481 159.952 471.969 159.488L472.521 158.528C473.033 158.96 473.689 159.32 474.489 159.608C475.305 159.896 476.153 160.04 477.033 160.04C478.297 160.04 479.225 159.832 479.817 159.416C480.425 159 480.729 158.424 480.729 157.688C480.729 157.16 480.561 156.744 480.225 156.44C479.905 156.136 479.505 155.912 479.025 155.768C478.545 155.624 477.881 155.472 477.033 155.312C476.041 155.136 475.241 154.944 474.633 154.736C474.025 154.528 473.505 154.192 473.073 153.728C472.641 153.264 472.425 152.624 472.425 151.808C472.425 150.816 472.833 150 473.649 149.36C474.481 148.704 475.657 148.376 477.177 148.376C477.977 148.376 478.769 148.488 479.553 148.712C480.337 148.936 480.977 149.232 481.473 149.6L480.921 150.56C480.409 150.192 479.825 149.912 479.169 149.72C478.513 149.528 477.841 149.432 477.153 149.432C475.985 149.432 475.105 149.648 474.513 150.08C473.921 150.512 473.625 151.08 473.625 151.784C473.625 152.344 473.793 152.784 474.129 153.104C474.465 153.408 474.873 153.64 475.353 153.8C475.849 153.944 476.537 154.104 477.417 154.28C478.393 154.456 479.177 154.648 479.769 154.856C480.377 155.048 480.889 155.368 481.305 155.816C481.721 156.264 481.929 156.88 481.929 157.664C481.929 158.704 481.497 159.536 480.633 160.16C479.769 160.784 478.553 161.096 476.985 161.096ZM485.278 148.472H486.478V161H485.278V148.472ZM485.878 145.424C485.606 145.424 485.374 145.336 485.182 145.16C484.99 144.968 484.894 144.736 484.894 144.464C484.894 144.192 484.99 143.96 485.182 143.768C485.374 143.576 485.606 143.48 485.878 143.48C486.15 143.48 486.382 143.576 486.574 143.768C486.766 143.944 486.862 144.168 486.862 144.44C486.862 144.712 486.766 144.944 486.574 145.136C486.382 145.328 486.15 145.424 485.878 145.424ZM502.816 148.472V159.656C502.816 161.736 502.312 163.272 501.304 164.264C500.296 165.256 498.776 165.752 496.744 165.752C495.592 165.752 494.504 165.576 493.48 165.224C492.456 164.872 491.632 164.384 491.008 163.76L491.656 162.848C492.28 163.424 493.032 163.872 493.912 164.192C494.792 164.512 495.728 164.672 496.72 164.672C498.384 164.672 499.616 164.272 500.416 163.472C501.216 162.688 501.616 161.464 501.616 159.8V157.688C501.104 158.6 500.392 159.304 499.48 159.8C498.568 160.296 497.544 160.544 496.408 160.544C495.24 160.544 494.176 160.288 493.216 159.776C492.272 159.248 491.528 158.52 490.984 157.592C490.44 156.664 490.168 155.616 490.168 154.448C490.168 153.28 490.44 152.232 490.984 151.304C491.528 150.376 492.272 149.656 493.216 149.144C494.176 148.632 495.24 148.376 496.408 148.376C497.56 148.376 498.6 148.632 499.528 149.144C500.456 149.656 501.168 150.376 501.664 151.304V148.472H502.816ZM496.504 159.464C497.48 159.464 498.36 159.256 499.144 158.84C499.928 158.408 500.536 157.816 500.968 157.064C501.416 156.296 501.64 155.424 501.64 154.448C501.64 153.472 501.416 152.608 500.968 151.856C500.536 151.104 499.928 150.52 499.144 150.104C498.36 149.672 497.48 149.456 496.504 149.456C495.528 149.456 494.648 149.672 493.864 150.104C493.096 150.52 492.488 151.104 492.04 151.856C491.608 152.608 491.392 153.472 491.392 154.448C491.392 155.424 491.608 156.296 492.04 157.064C492.488 157.816 493.096 158.408 493.864 158.84C494.648 159.256 495.528 159.464 496.504 159.464ZM514.016 148.376C515.584 148.376 516.824 148.832 517.736 149.744C518.648 150.656 519.104 151.968 519.104 153.68V161H517.904V153.776C517.904 152.368 517.544 151.296 516.824 150.56C516.12 149.824 515.128 149.456 513.848 149.456C512.376 149.456 511.216 149.896 510.368 150.776C509.52 151.656 509.096 152.84 509.096 154.328V161H507.896V148.472H509.048V151.184C509.48 150.304 510.12 149.616 510.968 149.12C511.832 148.624 512.848 148.376 514.016 148.376Z" fill="black"/>
<path d="M37.528 159.896V161H25.984V160.136L33.088 153.08C34.016 152.152 34.64 151.36 34.96 150.704C35.296 150.032 35.464 149.344 35.464 148.64C35.464 147.568 35.096 146.728 34.36 146.12C33.64 145.512 32.592 145.208 31.216 145.208C30.16 145.208 29.232 145.368 28.432 145.688C27.648 146.008 26.968 146.496 26.392 147.152L25.528 146.384C26.168 145.648 26.976 145.08 27.952 144.68C28.944 144.28 30.064 144.08 31.312 144.08C32.96 144.08 34.272 144.48 35.248 145.28C36.224 146.08 36.712 147.16 36.712 148.52C36.712 149.384 36.52 150.208 36.136 150.992C35.752 151.776 35.032 152.688 33.976 153.728L27.784 159.896H37.528ZM46.3257 161.12C45.0457 161.12 43.9017 160.776 42.8937 160.088C41.9017 159.384 41.1257 158.392 40.5657 157.112C40.0217 155.832 39.7497 154.328 39.7497 152.6C39.7497 150.872 40.0217 149.368 40.5657 148.088C41.1257 146.808 41.9017 145.824 42.8937 145.136C43.9017 144.432 45.0457 144.08 46.3257 144.08C47.6057 144.08 48.7417 144.432 49.7337 145.136C50.7417 145.824 51.5177 146.808 52.0617 148.088C52.6217 149.368 52.9017 150.872 52.9017 152.6C52.9017 154.328 52.6217 155.832 52.0617 157.112C51.5177 158.392 50.7417 159.384 49.7337 160.088C48.7417 160.776 47.6057 161.12 46.3257 161.12ZM46.3257 159.992C47.3817 159.992 48.3097 159.704 49.1097 159.128C49.9257 158.536 50.5577 157.688 51.0057 156.584C51.4537 155.464 51.6777 154.136 51.6777 152.6C51.6777 151.064 51.4537 149.744 51.0057 148.64C50.5577 147.52 49.9257 146.672 49.1097 146.096C48.3097 145.504 47.3817 145.208 46.3257 145.208C45.2697 145.208 44.3337 145.504 43.5177 146.096C42.7177 146.672 42.0937 147.52 41.6457 148.64C41.1977 149.744 40.9737 151.064 40.9737 152.6C40.9737 154.136 41.1977 155.464 41.6457 156.584C42.0937 157.688 42.7177 158.536 43.5177 159.128C44.3337 159.704 45.2697 159.992 46.3257 159.992ZM59.7471 144.2V161H58.5231V145.304H54.4191V144.2H59.7471ZM69.0481 144.08C71.2241 144.08 72.8881 144.824 74.0401 146.312C75.2081 147.784 75.7921 149.848 75.7921 152.504C75.7921 154.36 75.4801 155.936 74.8561 157.232C74.2481 158.512 73.3841 159.48 72.2641 160.136C71.1441 160.792 69.8321 161.12 68.3281 161.12C66.7441 161.12 65.4721 160.832 64.5121 160.256L65.0161 159.272C65.8161 159.784 66.9201 160.04 68.3281 160.04C70.2641 160.04 71.7841 159.416 72.8881 158.168C74.0081 156.904 74.5681 155.08 74.5681 152.696C74.5681 151.96 74.5201 151.288 74.4241 150.68C74.0881 151.768 73.4321 152.616 72.4561 153.224C71.4961 153.832 70.3681 154.136 69.0721 154.136C67.9681 154.136 66.9841 153.936 66.1201 153.536C65.2721 153.12 64.6161 152.536 64.1521 151.784C63.6881 151.016 63.4561 150.136 63.4561 149.144C63.4561 148.136 63.6961 147.248 64.1761 146.48C64.6561 145.712 65.3201 145.12 66.1681 144.704C67.0161 144.288 67.9761 144.08 69.0481 144.08ZM69.2401 153.08C70.1361 153.08 70.9361 152.904 71.6401 152.552C72.3601 152.2 72.9121 151.72 73.2961 151.112C73.6961 150.504 73.8961 149.824 73.8961 149.072C73.8961 148.4 73.7041 147.76 73.3201 147.152C72.9521 146.544 72.4081 146.056 71.6881 145.688C70.9681 145.32 70.1041 145.136 69.0961 145.136C67.7841 145.136 66.7201 145.504 65.9041 146.24C65.0881 146.96 64.6801 147.92 64.6801 149.12C64.6801 150.32 65.0881 151.28 65.9041 152C66.7201 152.72 67.8321 153.08 69.2401 153.08ZM78.8005 154.016H84.9685V155.096H78.8005V154.016ZM88.7125 161.096C88.4405 161.096 88.2005 161 87.9925 160.808C87.8005 160.6 87.7045 160.352 87.7045 160.064C87.7045 159.776 87.8005 159.536 87.9925 159.344C88.2005 159.152 88.4405 159.056 88.7125 159.056C88.9845 159.056 89.2165 159.152 89.4085 159.344C89.6165 159.536 89.7205 159.776 89.7205 160.064C89.7205 160.352 89.6165 160.6 89.4085 160.808C89.2165 161 88.9845 161.096 88.7125 161.096ZM93.5172 161.096C93.2452 161.096 93.0052 161 92.7972 160.808C92.6052 160.6 92.5092 160.352 92.5092 160.064C92.5092 159.776 92.6052 159.536 92.7972 159.344C93.0052 159.152 93.2452 159.056 93.5172 159.056C93.7892 159.056 94.0212 159.152 94.2132 159.344C94.4212 159.536 94.5252 159.776 94.5252 160.064C94.5252 160.352 94.4212 160.6 94.2132 160.808C94.0212 161 93.7892 161.096 93.5172 161.096ZM98.3219 161.096C98.0499 161.096 97.8099 161 97.6019 160.808C97.4099 160.6 97.3139 160.352 97.3139 160.064C97.3139 159.776 97.4099 159.536 97.6019 159.344C97.8099 159.152 98.0499 159.056 98.3219 159.056C98.5939 159.056 98.8259 159.152 99.0179 159.344C99.2259 159.536 99.3299 159.776 99.3299 160.064C99.3299 160.352 99.2259 160.6 99.0179 160.808C98.8259 161 98.5939 161.096 98.3219 161.096Z" fill="black"/>
<path fill-rule="evenodd" clip-rule="evenodd" d="M508.825 488H511.174C512.849 488.004 513.234 488.019 514.123 488.059C515.187 488.108 515.914 488.277 516.55 488.524C517.208 488.779 517.766 489.121 518.322 489.677C518.878 490.233 519.219 490.791 519.475 491.449C519.722 492.085 519.891 492.812 519.94 493.876C519.987 494.907 519.999 495.26 520 497.736V498.263C519.999 500.739 519.987 501.092 519.94 502.123C519.891 503.187 519.722 503.914 519.475 504.55C519.219 505.208 518.878 505.766 518.322 506.322C517.766 506.878 517.208 507.219 516.55 507.475C515.914 507.722 515.187 507.891 514.123 507.94C513.092 507.987 512.739 507.999 510.263 508H509.736C507.26 507.999 506.907 507.987 505.876 507.94C504.812 507.891 504.085 507.722 503.449 507.475C502.791 507.219 502.233 506.878 501.677 506.322C501.121 505.766 500.779 505.208 500.524 504.55C500.277 503.914 500.108 503.187 500.059 502.123C500.019 501.234 500.004 500.849 500 499.174V496.825C500.004 495.15 500.019 494.765 500.059 493.876C500.108 492.812 500.277 492.085 500.524 491.449C500.779 490.791 501.121 490.233 501.677 489.677C502.233 489.121 502.791 488.779 503.449 488.524C504.085 488.277 504.812 488.108 505.876 488.059C506.765 488.019 507.15 488.004 508.825 488H511.174H508.825ZM510.733 489.801H509.266C507.259 489.803 506.907 489.816 505.958 489.859C504.983 489.904 504.454 490.067 504.101 490.203C503.635 490.385 503.301 490.602 502.952 490.952C502.602 491.301 502.385 491.635 502.203 492.101C502.067 492.454 501.904 492.983 501.859 493.958C501.816 494.907 501.803 495.259 501.801 497.266V498.733C501.803 500.74 501.816 501.091 501.859 502.041C501.904 503.016 502.067 503.545 502.203 503.898C502.385 504.364 502.602 504.697 502.952 505.047C503.301 505.397 503.635 505.614 504.101 505.795C504.454 505.932 504.983 506.095 505.958 506.14C507.013 506.188 507.329 506.198 510 506.198C512.67 506.198 512.986 506.188 514.041 506.14C515.016 506.095 515.545 505.932 515.898 505.795C516.364 505.614 516.697 505.397 517.047 505.047C517.397 504.697 517.614 504.364 517.795 503.898C517.932 503.545 518.095 503.016 518.14 502.041C518.188 500.986 518.198 500.67 518.198 498C518.198 495.329 518.188 495.013 518.14 493.958C518.095 492.983 517.932 492.454 517.795 492.101C517.614 491.635 517.397 491.301 517.047 490.952C516.697 490.602 516.364 490.385 515.898 490.203C515.545 490.067 515.016 489.904 514.041 489.859C513.091 489.816 512.74 489.803 510.733 489.801ZM509.999 492.999C512.761 492.999 515 495.238 515 497.999C515 500.761 512.761 503 509.999 503C507.238 503 504.999 500.761 504.999 497.999C504.999 495.238 507.238 492.999 509.999 492.999ZM509.999 494.754C508.207 494.754 506.754 496.207 506.754 497.999C506.754 499.792 508.207 501.245 509.999 501.245C511.792 501.245 513.245 499.792 513.245 497.999C513.245 496.207 511.792 494.754 509.999 494.754ZM515.416 491.332C516.107 491.332 516.667 491.892 516.667 492.583C516.667 493.273 516.107 493.833 515.416 493.833C514.726 493.833 514.166 493.273 514.166 492.583C514.166 491.892 514.726 491.332 515.416 491.332Z" fill="black"/>
<path fill-rule="evenodd" clip-rule="evenodd" d="M469.329 488C470.252 488 471 488.748 471 489.671V506.329C471 507.252 470.252 508 469.329 508H452.671C451.748 508 451 507.252 451 506.329V489.671C451 488.748 451.748 488 452.671 488H469.329ZM464.519 495.5C463.099 495.5 462.128 496.127 461.696 496.856L461.625 496.986V495.625H458.917V505.208H461.833V500.566C461.833 499.01 462.406 498.021 463.783 498.021C464.733 498.021 465.132 498.861 465.164 500.358L465.167 500.566V505.208H468.083V499.915C468.083 497.058 467.4 495.5 464.519 495.5ZM456.833 495.5H453.917V505.083H456.833V495.5ZM455.375 490.5C454.34 490.5 453.5 491.34 453.5 492.375C453.5 493.41 454.34 494.25 455.375 494.25C456.41 494.25 457.25 493.41 457.25 492.375C457.25 491.34 456.41 490.5 455.375 490.5Z" fill="black"/>
<path d="M37.432 487.08C39.56 487.08 41.464 487.528 43.144 488.424C44.824 489.304 46.128 490.552 47.056 492.168C48 493.768 48.472 495.608 48.472 497.688C48.472 499.704 48.136 501.28 47.464 502.416C46.808 503.536 45.912 504.096 44.776 504.096C44.008 504.096 43.392 503.872 42.928 503.424C42.48 502.96 42.256 502.328 42.256 501.528V501.024C41.776 501.984 41.088 502.736 40.192 503.28C39.296 503.824 38.28 504.096 37.144 504.096C36.024 504.096 35.008 503.832 34.096 503.304C33.184 502.76 32.464 502.016 31.936 501.072C31.424 500.128 31.168 499.056 31.168 497.856C31.168 496.672 31.424 495.608 31.936 494.664C32.464 493.72 33.184 492.984 34.096 492.456C35.008 491.912 36.024 491.64 37.144 491.64C38.28 491.64 39.288 491.904 40.168 492.432C41.064 492.96 41.752 493.696 42.232 494.64V491.736H43.336V501.216C43.336 501.872 43.48 502.352 43.768 502.656C44.056 502.96 44.44 503.112 44.92 503.112C45.72 503.112 46.352 502.64 46.816 501.696C47.296 500.736 47.536 499.408 47.536 497.712C47.536 495.792 47.104 494.096 46.24 492.624C45.392 491.152 44.2 490.016 42.664 489.216C41.144 488.4 39.4 487.992 37.432 487.992C35.448 487.992 33.688 488.408 32.152 489.24C30.632 490.072 29.44 491.24 28.576 492.744C27.728 494.248 27.304 495.968 27.304 497.904C27.304 499.84 27.72 501.56 28.552 503.064C29.4 504.568 30.584 505.736 32.104 506.568C33.64 507.416 35.384 507.84 37.336 507.84C38.104 507.84 38.896 507.752 39.712 507.576C40.528 507.4 41.264 507.136 41.92 506.784L42.232 507.672C41.56 508.024 40.776 508.296 39.88 508.488C39 508.68 38.152 508.776 37.336 508.776C35.192 508.776 33.28 508.312 31.6 507.384C29.936 506.472 28.64 505.192 27.712 503.544C26.784 501.896 26.32 500.016 26.32 497.904C26.32 495.792 26.792 493.92 27.736 492.288C28.68 490.64 29.992 489.36 31.672 488.448C33.352 487.536 35.272 487.08 37.432 487.08ZM37.264 503.088C38.208 503.088 39.056 502.872 39.808 502.44C40.576 501.992 41.176 501.376 41.608 500.592C42.04 499.792 42.256 498.88 42.256 497.856C42.256 496.832 42.04 495.928 41.608 495.144C41.176 494.344 40.576 493.728 39.808 493.296C39.056 492.864 38.208 492.648 37.264 492.648C36.32 492.648 35.472 492.872 34.72 493.32C33.968 493.752 33.376 494.368 32.944 495.168C32.512 495.952 32.296 496.848 32.296 497.856C32.296 498.864 32.512 499.768 32.944 500.568C33.376 501.368 33.968 501.992 34.72 502.44C35.472 502.872 36.32 503.088 37.264 503.088ZM52.3409 486.192H53.5409V504H52.3409V486.192ZM62.8227 491.376C64.3747 491.376 65.5667 491.776 66.3987 492.576C67.2307 493.36 67.6467 494.52 67.6467 496.056V504H66.4947V501.768C66.0947 502.504 65.5107 503.08 64.7427 503.496C63.9747 503.896 63.0547 504.096 61.9827 504.096C60.5907 504.096 59.4867 503.768 58.6707 503.112C57.8707 502.456 57.4707 501.592 57.4707 500.52C57.4707 499.48 57.8387 498.64 58.5747 498C59.3267 497.344 60.5187 497.016 62.1507 497.016H66.4467V496.008C66.4467 494.84 66.1267 493.952 65.4867 493.344C64.8627 492.736 63.9427 492.432 62.7267 492.432C61.8947 492.432 61.0947 492.576 60.3267 492.864C59.5747 493.152 58.9347 493.536 58.4067 494.016L57.8067 493.152C58.4307 492.592 59.1827 492.16 60.0627 491.856C60.9427 491.536 61.8627 491.376 62.8227 491.376ZM62.1507 503.112C63.1907 503.112 64.0707 502.872 64.7907 502.392C65.5267 501.912 66.0787 501.216 66.4467 500.304V497.952H62.1747C60.9427 497.952 60.0467 498.176 59.4867 498.624C58.9427 499.072 58.6707 499.688 58.6707 500.472C58.6707 501.288 58.9747 501.936 59.5827 502.416C60.1907 502.88 61.0467 503.112 62.1507 503.112ZM83.5589 491.472V504H82.4069V501.312C81.9909 502.192 81.3749 502.88 80.5589 503.376C79.7429 503.856 78.7829 504.096 77.6789 504.096C76.0469 504.096 74.7669 503.64 73.8389 502.728C72.9109 501.816 72.4469 500.504 72.4469 498.792V491.472H73.6469V498.696C73.6469 500.104 74.0069 501.176 74.7269 501.912C75.4469 502.648 76.4629 503.016 77.7749 503.016C79.1829 503.016 80.2949 502.576 81.1109 501.696C81.9429 500.816 82.3589 499.632 82.3589 498.144V491.472H83.5589ZM89.7976 494.208C90.1816 493.296 90.7816 492.6 91.5976 492.12C92.4136 491.624 93.4056 491.376 94.5736 491.376V492.552L94.2856 492.528C92.8936 492.528 91.8056 492.968 91.0216 493.848C90.2376 494.712 89.8456 495.92 89.8456 497.472V504H88.6456V491.472H89.7976V494.208ZM102.104 491.376C103.656 491.376 104.848 491.776 105.68 492.576C106.512 493.36 106.928 494.52 106.928 496.056V504H105.776V501.768C105.376 502.504 104.792 503.08 104.024 503.496C103.256 503.896 102.336 504.096 101.264 504.096C99.8719 504.096 98.7679 503.768 97.9519 503.112C97.1519 502.456 96.7519 501.592 96.7519 500.52C96.7519 499.48 97.1199 498.64 97.8559 498C98.6079 497.344 99.7999 497.016 101.432 497.016H105.728V496.008C105.728 494.84 105.408 493.952 104.768 493.344C104.144 492.736 103.224 492.432 102.008 492.432C101.176 492.432 100.376 492.576 99.6079 492.864C98.8559 493.152 98.2159 493.536 97.6879 494.016L97.0879 493.152C97.7119 492.592 98.4639 492.16 99.3439 491.856C100.224 491.536 101.144 491.376 102.104 491.376ZM101.432 503.112C102.472 503.112 103.352 502.872 104.072 502.392C104.808 501.912 105.36 501.216 105.728 500.304V497.952H101.456C100.224 497.952 99.3279 498.176 98.7679 498.624C98.2239 499.072 97.9519 499.688 97.9519 500.472C97.9519 501.288 98.2559 501.936 98.8639 502.416C99.4719 502.88 100.328 503.112 101.432 503.112ZM116.792 504.096C115.608 504.096 114.536 503.824 113.576 503.28C112.632 502.736 111.888 501.984 111.344 501.024C110.8 500.048 110.528 498.952 110.528 497.736C110.528 496.52 110.8 495.432 111.344 494.472C111.888 493.496 112.632 492.736 113.576 492.192C114.536 491.648 115.608 491.376 116.792 491.376C117.976 491.376 119.04 491.648 119.984 492.192C120.944 492.736 121.696 493.496 122.24 494.472C122.784 495.432 123.056 496.52 123.056 497.736C123.056 498.952 122.784 500.048 122.24 501.024C121.696 501.984 120.944 502.736 119.984 503.28C119.04 503.824 117.976 504.096 116.792 504.096ZM116.792 503.016C117.752 503.016 118.608 502.792 119.36 502.344C120.128 501.896 120.728 501.272 121.16 500.472C121.608 499.672 121.832 498.76 121.832 497.736C121.832 496.712 121.608 495.8 121.16 495C120.728 494.2 120.128 493.576 119.36 493.128C118.608 492.68 117.752 492.456 116.792 492.456C115.832 492.456 114.968 492.68 114.2 493.128C113.448 493.576 112.848 494.2 112.4 495C111.968 495.8 111.752 496.712 111.752 497.736C111.752 498.76 111.968 499.672 112.4 500.472C112.848 501.272 113.448 501.896 114.2 502.344C114.968 502.792 115.832 503.016 116.792 503.016ZM131.242 497.304L127.978 500.28V504H126.778V486.192H127.978V498.792L135.994 491.472H137.53L132.13 496.536L138.058 504H136.57L131.242 497.304ZM144.877 491.376C146.429 491.376 147.621 491.776 148.453 492.576C149.285 493.36 149.701 494.52 149.701 496.056V504H148.549V501.768C148.149 502.504 147.565 503.08 146.797 503.496C146.029 503.896 145.109 504.096 144.037 504.096C142.645 504.096 141.541 503.768 140.725 503.112C139.925 502.456 139.525 501.592 139.525 500.52C139.525 499.48 139.893 498.64 140.629 498C141.381 497.344 142.573 497.016 144.205 497.016H148.501V496.008C148.501 494.84 148.181 493.952 147.541 493.344C146.917 492.736 145.997 492.432 144.781 492.432C143.949 492.432 143.149 492.576 142.381 492.864C141.629 493.152 140.989 493.536 140.461 494.016L139.861 493.152C140.485 492.592 141.237 492.16 142.117 491.856C142.997 491.536 143.917 491.376 144.877 491.376ZM144.205 503.112C145.245 503.112 146.125 502.872 146.845 502.392C147.581 501.912 148.133 501.216 148.501 500.304V497.952H144.229C142.997 497.952 142.101 498.176 141.541 498.624C140.997 499.072 140.725 499.688 140.725 500.472C140.725 501.288 141.029 501.936 141.637 502.416C142.245 502.88 143.101 503.112 144.205 503.112ZM157.814 504.096C156.806 504.096 155.846 503.944 154.934 503.64C154.022 503.336 153.31 502.952 152.798 502.488L153.35 501.528C153.862 501.96 154.518 502.32 155.318 502.608C156.134 502.896 156.982 503.04 157.862 503.04C159.126 503.04 160.054 502.832 160.646 502.416C161.254 502 161.558 501.424 161.558 500.688C161.558 500.16 161.39 499.744 161.054 499.44C160.734 499.136 160.334 498.912 159.854 498.768C159.374 498.624 158.71 498.472 157.862 498.312C156.87 498.136 156.07 497.944 155.462 497.736C154.854 497.528 154.334 497.192 153.902 496.728C153.47 496.264 153.254 495.624 153.254 494.808C153.254 493.816 153.662 493 154.478 492.36C155.31 491.704 156.486 491.376 158.006 491.376C158.806 491.376 159.598 491.488 160.382 491.712C161.166 491.936 161.806 492.232 162.302 492.6L161.75 493.56C161.238 493.192 160.654 492.912 159.998 492.72C159.342 492.528 158.67 492.432 157.982 492.432C156.814 492.432 155.934 492.648 155.342 493.08C154.75 493.512 154.454 494.08 154.454 494.784C154.454 495.344 154.622 495.784 154.958 496.104C155.294 496.408 155.702 496.64 156.182 496.8C156.678 496.944 157.366 497.104 158.246 497.28C159.222 497.456 160.006 497.648 160.598 497.856C161.206 498.048 161.718 498.368 162.134 498.816C162.55 499.264 162.758 499.88 162.758 500.664C162.758 501.704 162.326 502.536 161.462 503.16C160.598 503.784 159.382 504.096 157.814 504.096Z" fill="black"/>
</svg>
